<svg width="18" height="18" viewBox="0 0 18 18" fill="none" xmlns="http://www.w3.org/2000/svg">
<path d="M8.97407 17.9481C13.8834 17.9481 17.9481 13.8746 17.9481 8.97406C17.9481 4.06472 13.8746 -4.46104e-06 8.96527 -4.46104e-06C4.06473 -4.46104e-06 1.12411e-06 4.06472 1.12411e-06 8.97406C1.12411e-06 13.8746 4.07352 17.9481 8.97407 17.9481ZM8.97407 16.4525C4.82136 16.4525 1.50448 13.1268 1.50448 8.97406C1.50448 4.82136 4.81256 1.49567 8.96527 1.49567C13.118 1.49567 16.4437 4.82136 16.4525 8.97406C16.4613 13.1268 13.1268 16.4525 8.97407 16.4525ZM4.86535 10.2498C5.5692 10.2498 6.14108 9.67791 6.14108 8.96526C6.14108 8.26142 5.5604 7.68954 4.86535 7.68954C4.15271 7.68954 3.58083 8.26142 3.58083 8.96526C3.58083 9.67791 4.15271 10.2498 4.86535 10.2498ZM8.96527 10.2498C9.66912 10.2498 10.2498 9.67791 10.2498 8.96526C10.2498 8.26142 9.66912 7.68954 8.96527 7.68954C8.26142 7.68954 7.68075 8.26142 7.68075 8.96526C7.68075 9.67791 8.26142 10.2498 8.96527 10.2498ZM13.074 10.2498C13.7778 10.2498 14.3497 9.67791 14.3497 8.96526C14.3497 8.26142 13.7778 7.68954 13.074 7.68954C12.3613 7.68954 11.7895 8.26142 11.7895 8.96526C11.7895 9.67791 12.3613 10.2498 13.074 10.2498Z" fill="#EBEBF5" fill-opacity="0.6"/>
</svg>
